<mxfile host="65bd71144e" scale="2" border="0">
    <diagram id="MPPlBgXA0L6mL1Z8iJb4" name="VisualArch">
        <mxGraphModel dx="1604" dy="1180" grid="1" gridSize="10" guides="1" tooltips="1" connect="1" arrows="1" fold="1" page="0" pageScale="1" pageWidth="850" pageHeight="1100" math="0" shadow="0">
            <root>
                <mxCell id="0"/>
                <mxCell id="1" parent="0"/>
                <mxCell id="70" value="&lt;div&gt;System Domain&lt;/div&gt;" style="rounded=0;whiteSpace=wrap;html=1;align=left;verticalAlign=top;strokeWidth=4;fontSize=24;fontStyle=1" vertex="1" parent="1">
                    <mxGeometry x="-550" y="-730" width="1000" height="590" as="geometry"/>
                </mxCell>
                <mxCell id="67" value="&lt;div&gt;Requirements Domain&lt;/div&gt;" style="rounded=0;whiteSpace=wrap;html=1;align=center;verticalAlign=top;strokeWidth=3;fontStyle=1;fontSize=16;" vertex="1" parent="1">
                    <mxGeometry x="-540" y="-520" width="520" height="230" as="geometry"/>
                </mxCell>
                <mxCell id="66" value="&lt;div&gt;User Domain&lt;/div&gt;" style="rounded=0;whiteSpace=wrap;html=1;align=center;verticalAlign=top;strokeWidth=3;fontStyle=1;fontSize=16;" vertex="1" parent="1">
                    <mxGeometry x="-320" y="-720" width="520" height="160" as="geometry"/>
                </mxCell>
                <mxCell id="65" value="&lt;div&gt;Data Domain&lt;/div&gt;" style="rounded=0;whiteSpace=wrap;html=1;align=center;verticalAlign=top;strokeWidth=3;fontStyle=1;fontSize=16;" vertex="1" parent="1">
                    <mxGeometry y="-520" width="440" height="320" as="geometry"/>
                </mxCell>
                <mxCell id="2" value="Legal Frameworks" style="sketch=0;outlineConnect=0;fontColor=#232F3E;gradientColor=none;fillColor=#000000;strokeColor=none;dashed=0;verticalLabelPosition=bottom;verticalAlign=top;align=center;html=1;fontSize=12;fontStyle=0;aspect=fixed;pointerEvents=1;shape=mxgraph.aws4.documents;" vertex="1" parent="1">
                    <mxGeometry x="-500" y="-469" width="98.46" height="120" as="geometry"/>
                </mxCell>
                <mxCell id="3" value="LLM / NLP for &lt;br&gt;Requirement Extraction" style="sketch=0;outlineConnect=0;fontColor=#232F3E;gradientColor=none;fillColor=#000000;strokeColor=none;dashed=0;verticalLabelPosition=bottom;verticalAlign=top;align=center;html=1;fontSize=12;fontStyle=0;aspect=fixed;pointerEvents=1;shape=mxgraph.aws4.sagemaker_model;" vertex="1" parent="1">
                    <mxGeometry x="-360" y="-469" width="120" height="120" as="geometry"/>
                </mxCell>
                <mxCell id="7" value="" style="sketch=0;outlineConnect=0;fontColor=#232F3E;gradientColor=none;fillColor=#000000;strokeColor=none;dashed=0;verticalLabelPosition=bottom;verticalAlign=top;align=center;html=1;fontSize=12;fontStyle=0;aspect=fixed;pointerEvents=1;shape=mxgraph.aws4.email_2;" vertex="1" parent="1">
                    <mxGeometry x="-401.54" y="-250" width="127.35" height="80" as="geometry"/>
                </mxCell>
                <mxCell id="8" value="" style="image;sketch=0;aspect=fixed;html=1;points=[];align=center;fontSize=12;image=img/lib/mscae/SAP_HANA_on_Azure.svg;imageBackground=none;" vertex="1" parent="1">
                    <mxGeometry x="-540" y="-280" width="140" height="70" as="geometry"/>
                </mxCell>
                <mxCell id="11" value="" style="endArrow=none;html=1;edgeStyle=orthogonalEdgeStyle;endFill=0;startArrow=ERmany;startFill=0;" edge="1" parent="1" source="2" target="3">
                    <mxGeometry relative="1" as="geometry">
                        <mxPoint x="-550" y="-530" as="sourcePoint"/>
                        <mxPoint x="-390" y="-530" as="targetPoint"/>
                    </mxGeometry>
                </mxCell>
                <mxCell id="14" value="Share Requirements" style="swimlane;fontStyle=1;align=center;verticalAlign=middle;childLayout=stackLayout;horizontal=1;startSize=29;horizontalStack=0;resizeParent=1;resizeParentMax=0;resizeLast=0;collapsible=0;marginBottom=0;html=1;whiteSpace=wrap;strokeWidth=2;" vertex="1" parent="1">
                    <mxGeometry x="-200" y="-491.5" width="160" height="165" as="geometry"/>
                </mxCell>
                <mxCell id="15" value="compression allowance" style="text;html=1;strokeColor=default;fillColor=none;align=center;verticalAlign=middle;spacingLeft=4;spacingRight=4;overflow=hidden;rotatable=0;points=[[0,0.5],[1,0.5]];portConstraint=eastwest;whiteSpace=wrap;" vertex="1" parent="14">
                    <mxGeometry y="29" width="160" height="25" as="geometry"/>
                </mxCell>
                <mxCell id="16" value="minimum retention period" style="text;html=1;strokeColor=default;fillColor=none;align=center;verticalAlign=middle;spacingLeft=4;spacingRight=4;overflow=hidden;rotatable=0;points=[[0,0.5],[1,0.5]];portConstraint=eastwest;whiteSpace=wrap;" vertex="1" parent="14">
                    <mxGeometry y="54" width="160" height="25" as="geometry"/>
                </mxCell>
                <mxCell id="25" value="access rights" style="text;html=1;strokeColor=default;fillColor=none;align=center;verticalAlign=middle;spacingLeft=4;spacingRight=4;overflow=hidden;rotatable=0;points=[[0,0.5],[1,0.5]];portConstraint=eastwest;whiteSpace=wrap;" vertex="1" parent="14">
                    <mxGeometry y="79" width="160" height="25" as="geometry"/>
                </mxCell>
                <mxCell id="26" value="driving cost element&lt;br&gt;(project / department)" style="text;html=1;strokeColor=default;fillColor=none;align=center;verticalAlign=middle;spacingLeft=4;spacingRight=4;overflow=hidden;rotatable=0;points=[[0,0.5],[1,0.5]];portConstraint=eastwest;whiteSpace=wrap;" vertex="1" parent="14">
                    <mxGeometry y="104" width="160" height="36" as="geometry"/>
                </mxCell>
                <mxCell id="63" value="data forecast" style="text;html=1;strokeColor=default;fillColor=none;align=center;verticalAlign=middle;spacingLeft=4;spacingRight=4;overflow=hidden;rotatable=0;points=[[0,0.5],[1,0.5]];portConstraint=eastwest;whiteSpace=wrap;" vertex="1" parent="14">
                    <mxGeometry y="140" width="160" height="25" as="geometry"/>
                </mxCell>
                <mxCell id="17" value="" style="endArrow=ERmany;html=1;edgeStyle=orthogonalEdgeStyle;endFill=0;startArrow=none;startFill=0;" edge="1" parent="1" source="3" target="14">
                    <mxGeometry relative="1" as="geometry">
                        <mxPoint x="-320" y="-415.34" as="sourcePoint"/>
                        <mxPoint x="-240" y="-420" as="targetPoint"/>
                    </mxGeometry>
                </mxCell>
                <mxCell id="20" value="&lt;div&gt;&lt;br&gt;&lt;/div&gt;&lt;div&gt;&lt;br&gt;&lt;/div&gt;&lt;div&gt;Share&lt;/div&gt;&lt;div&gt;Admin&lt;/div&gt;" style="shape=actor;whiteSpace=wrap;html=1;strokeWidth=2;" vertex="1" parent="1">
                    <mxGeometry x="-160" y="-692.5" width="80" height="115" as="geometry"/>
                </mxCell>
                <mxCell id="21" value="" style="endArrow=ERmany;html=1;edgeStyle=orthogonalEdgeStyle;endFill=0;startArrow=ERmany;startFill=0;exitX=0.5;exitY=1;exitDx=0;exitDy=0;entryX=0.5;entryY=0;entryDx=0;entryDy=0;" edge="1" parent="1" source="20" target="14">
                    <mxGeometry relative="1" as="geometry">
                        <mxPoint x="-150" y="-490" as="sourcePoint"/>
                        <mxPoint x="-30" y="-490" as="targetPoint"/>
                    </mxGeometry>
                </mxCell>
                <mxCell id="27" value="" style="endArrow=none;html=1;edgeStyle=orthogonalEdgeStyle;endFill=0;startArrow=none;startFill=0;" edge="1" parent="1" source="14" target="31">
                    <mxGeometry relative="1" as="geometry">
                        <mxPoint x="-30" y="-415.2" as="sourcePoint"/>
                        <mxPoint x="60" y="-415" as="targetPoint"/>
                    </mxGeometry>
                </mxCell>
                <mxCell id="31" value="Share" style="swimlane;fontStyle=1;align=center;verticalAlign=middle;childLayout=stackLayout;horizontal=1;startSize=29;horizontalStack=0;resizeParent=1;resizeParentMax=0;resizeLast=0;collapsible=0;marginBottom=0;html=1;whiteSpace=wrap;strokeWidth=2;" vertex="1" parent="1">
                    <mxGeometry x="40" y="-474" width="160" height="130" as="geometry"/>
                </mxCell>
                <mxCell id="32" value="data types" style="text;html=1;strokeColor=default;fillColor=none;align=center;verticalAlign=middle;spacingLeft=4;spacingRight=4;overflow=hidden;rotatable=0;points=[[0,0.5],[1,0.5]];portConstraint=eastwest;whiteSpace=wrap;" vertex="1" parent="31">
                    <mxGeometry y="29" width="160" height="25" as="geometry"/>
                </mxCell>
                <mxCell id="33" value="data locations" style="text;html=1;strokeColor=default;fillColor=none;align=center;verticalAlign=middle;spacingLeft=4;spacingRight=4;overflow=hidden;rotatable=0;points=[[0,0.5],[1,0.5]];portConstraint=eastwest;whiteSpace=wrap;" vertex="1" parent="31">
                    <mxGeometry y="54" width="160" height="25" as="geometry"/>
                </mxCell>
                <mxCell id="34" value="data sizes" style="text;html=1;strokeColor=default;fillColor=none;align=center;verticalAlign=middle;spacingLeft=4;spacingRight=4;overflow=hidden;rotatable=0;points=[[0,0.5],[1,0.5]];portConstraint=eastwest;whiteSpace=wrap;" vertex="1" parent="31">
                    <mxGeometry y="79" width="160" height="25" as="geometry"/>
                </mxCell>
                <mxCell id="35" value="access frequencies" style="text;html=1;strokeColor=default;fillColor=none;align=center;verticalAlign=middle;spacingLeft=4;spacingRight=4;overflow=hidden;rotatable=0;points=[[0,0.5],[1,0.5]];portConstraint=eastwest;whiteSpace=wrap;" vertex="1" parent="31">
                    <mxGeometry y="104" width="160" height="26" as="geometry"/>
                </mxCell>
                <mxCell id="36" value="&lt;div&gt;&lt;br&gt;&lt;/div&gt;&lt;div&gt;&lt;br&gt;&lt;/div&gt;&lt;div&gt;&lt;br&gt;&lt;/div&gt;&lt;div&gt;Share&lt;/div&gt;&lt;div&gt;Reader /&lt;br&gt;Writer&lt;/div&gt;" style="shape=actor;whiteSpace=wrap;html=1;strokeWidth=2;" vertex="1" parent="1">
                    <mxGeometry x="80" y="-692.5" width="80" height="115" as="geometry"/>
                </mxCell>
                <mxCell id="37" value="" style="endArrow=ERmany;html=1;edgeStyle=orthogonalEdgeStyle;endFill=0;startArrow=ERmany;startFill=0;exitX=0.5;exitY=1;exitDx=0;exitDy=0;entryX=0.5;entryY=0;entryDx=0;entryDy=0;" edge="1" parent="1" source="36" target="31">
                    <mxGeometry relative="1" as="geometry">
                        <mxPoint x="140" y="-550" as="sourcePoint"/>
                        <mxPoint x="140" y="-475" as="targetPoint"/>
                    </mxGeometry>
                </mxCell>
                <mxCell id="41" value="File" style="swimlane;fontStyle=1;align=center;verticalAlign=middle;childLayout=stackLayout;horizontal=1;startSize=29;horizontalStack=0;resizeParent=1;resizeParentMax=0;resizeLast=0;collapsible=0;marginBottom=0;html=1;whiteSpace=wrap;strokeWidth=2;" vertex="1" parent="1">
                    <mxGeometry x="240" y="-487" width="180" height="156" as="geometry"/>
                </mxCell>
                <mxCell id="42" value="type" style="text;html=1;strokeColor=default;fillColor=none;align=center;verticalAlign=middle;spacingLeft=4;spacingRight=4;overflow=hidden;rotatable=0;points=[[0,0.5],[1,0.5]];portConstraint=eastwest;whiteSpace=wrap;" vertex="1" parent="41">
                    <mxGeometry y="29" width="180" height="25" as="geometry"/>
                </mxCell>
                <mxCell id="43" value="location" style="text;html=1;strokeColor=default;fillColor=none;align=center;verticalAlign=middle;spacingLeft=4;spacingRight=4;overflow=hidden;rotatable=0;points=[[0,0.5],[1,0.5]];portConstraint=eastwest;whiteSpace=wrap;" vertex="1" parent="41">
                    <mxGeometry y="54" width="180" height="25" as="geometry"/>
                </mxCell>
                <mxCell id="44" value="size" style="text;html=1;strokeColor=default;fillColor=none;align=center;verticalAlign=middle;spacingLeft=4;spacingRight=4;overflow=hidden;rotatable=0;points=[[0,0.5],[1,0.5]];portConstraint=eastwest;whiteSpace=wrap;" vertex="1" parent="41">
                    <mxGeometry y="79" width="180" height="25" as="geometry"/>
                </mxCell>
                <mxCell id="64" value="compressed?" style="text;html=1;strokeColor=default;fillColor=none;align=center;verticalAlign=middle;spacingLeft=4;spacingRight=4;overflow=hidden;rotatable=0;points=[[0,0.5],[1,0.5]];portConstraint=eastwest;whiteSpace=wrap;" vertex="1" parent="41">
                    <mxGeometry y="104" width="180" height="26" as="geometry"/>
                </mxCell>
                <mxCell id="45" value="access frequency" style="text;html=1;strokeColor=default;fillColor=none;align=center;verticalAlign=middle;spacingLeft=4;spacingRight=4;overflow=hidden;rotatable=0;points=[[0,0.5],[1,0.5]];portConstraint=eastwest;whiteSpace=wrap;" vertex="1" parent="41">
                    <mxGeometry y="130" width="180" height="26" as="geometry"/>
                </mxCell>
                <mxCell id="49" value="" style="endArrow=ERmany;html=1;edgeStyle=orthogonalEdgeStyle;endFill=0;startArrow=ERmany;startFill=0;" edge="1" parent="1" source="31" target="41">
                    <mxGeometry relative="1" as="geometry">
                        <mxPoint x="250" y="-410" as="sourcePoint"/>
                        <mxPoint x="342" y="-410" as="targetPoint"/>
                    </mxGeometry>
                </mxCell>
                <mxCell id="52" value="location" style="swimlane;fontStyle=1;align=center;verticalAlign=middle;childLayout=stackLayout;horizontal=1;startSize=29;horizontalStack=0;resizeParent=1;resizeParentMax=0;resizeLast=0;collapsible=0;marginBottom=0;html=1;whiteSpace=wrap;strokeWidth=2;" vertex="1" parent="1">
                    <mxGeometry x="240" y="-300" width="180" height="79" as="geometry"/>
                </mxCell>
                <mxCell id="53" value="physical: on premise / cloud" style="text;html=1;strokeColor=default;fillColor=none;align=center;verticalAlign=middle;spacingLeft=4;spacingRight=4;overflow=hidden;rotatable=0;points=[[0,0.5],[1,0.5]];portConstraint=eastwest;whiteSpace=wrap;" vertex="1" parent="52">
                    <mxGeometry y="29" width="180" height="25" as="geometry"/>
                </mxCell>
                <mxCell id="54" value="tier: hot / cold / cool / archive" style="text;html=1;strokeColor=default;fillColor=none;align=center;verticalAlign=middle;spacingLeft=4;spacingRight=4;overflow=hidden;rotatable=0;points=[[0,0.5],[1,0.5]];portConstraint=eastwest;whiteSpace=wrap;" vertex="1" parent="52">
                    <mxGeometry y="54" width="180" height="25" as="geometry"/>
                </mxCell>
                <mxCell id="57" value="" style="endArrow=ERmany;html=1;edgeStyle=orthogonalEdgeStyle;endFill=0;startArrow=none;startFill=0;exitX=0.5;exitY=0;exitDx=0;exitDy=0;" edge="1" parent="1" source="52" target="41">
                    <mxGeometry relative="1" as="geometry">
                        <mxPoint x="-30" y="-405" as="sourcePoint"/>
                        <mxPoint x="70" y="-405" as="targetPoint"/>
                    </mxGeometry>
                </mxCell>
                <mxCell id="62" value="Cost Down &lt;br&gt;File Compression &lt;br&gt;and&lt;br&gt;Relocation" style="sketch=0;outlineConnect=0;fontColor=#232F3E;gradientColor=none;fillColor=#000000;strokeColor=none;dashed=0;verticalLabelPosition=middle;verticalAlign=middle;align=right;html=1;fontSize=12;fontStyle=0;aspect=fixed;pointerEvents=1;shape=mxgraph.aws4.sagemaker_model;labelPosition=left;strokeWidth=1;" vertex="1" parent="1">
                    <mxGeometry x="310" y="-680" width="120" height="120" as="geometry"/>
                </mxCell>
                <mxCell id="71" value="Cost Reallocation&lt;br&gt;and&amp;nbsp;&lt;br&gt;User Notification&amp;nbsp;" style="sketch=0;outlineConnect=0;fontColor=#232F3E;gradientColor=none;fillColor=#000000;strokeColor=none;dashed=0;verticalLabelPosition=middle;verticalAlign=middle;align=right;html=1;fontSize=12;fontStyle=0;aspect=fixed;pointerEvents=1;shape=mxgraph.aws4.sagemaker_model;labelPosition=left;" vertex="1" parent="1">
                    <mxGeometry x="-140" y="-270" width="120" height="120" as="geometry"/>
                </mxCell>
                <mxCell id="74" value="&lt;div&gt;&lt;br&gt;&lt;/div&gt;&lt;div&gt;&lt;br&gt;&lt;/div&gt;&lt;div&gt;Data&lt;/div&gt;&lt;div&gt;Admin&lt;/div&gt;" style="shape=actor;whiteSpace=wrap;html=1;strokeWidth=2;" vertex="1" parent="1">
                    <mxGeometry x="-40" y="-692.5" width="80" height="115" as="geometry"/>
                </mxCell>
                <mxCell id="75" value="&lt;div&gt;&lt;br&gt;&lt;/div&gt;&lt;div&gt;&lt;br&gt;&lt;/div&gt;&lt;div&gt;System&lt;/div&gt;&lt;div&gt;Admin&lt;/div&gt;" style="shape=actor;whiteSpace=wrap;html=1;strokeWidth=2;" vertex="1" parent="1">
                    <mxGeometry x="-280" y="-692.5" width="80" height="115" as="geometry"/>
                </mxCell>
                <mxCell id="76" value="" style="endArrow=none;html=1;edgeStyle=orthogonalEdgeStyle;endFill=0;startArrow=ERmany;startFill=0;exitX=0.5;exitY=1;exitDx=0;exitDy=0;entryX=0.5;entryY=0;entryDx=0;entryDy=0;" edge="1" parent="1" source="74" target="65">
                    <mxGeometry relative="1" as="geometry">
                        <mxPoint x="-110" y="-567" as="sourcePoint"/>
                        <mxPoint x="-110" y="-481" as="targetPoint"/>
                    </mxGeometry>
                </mxCell>
                <mxCell id="80" value="" style="sketch=0;outlineConnect=0;fontColor=#232F3E;gradientColor=none;fillColor=#000000;strokeColor=none;dashed=0;verticalLabelPosition=middle;verticalAlign=middle;align=right;html=1;fontSize=12;fontStyle=0;aspect=fixed;pointerEvents=1;shape=mxgraph.aws4.sagemaker_model;labelPosition=left;" vertex="1" parent="1">
                    <mxGeometry x="-261.25" y="-690.5" width="42.5" height="42.5" as="geometry"/>
                </mxCell>
                <mxCell id="81" value="" style="sketch=0;pointerEvents=1;shadow=0;dashed=0;html=1;strokeColor=none;fillColor=#000000;labelPosition=center;verticalLabelPosition=bottom;verticalAlign=top;outlineConnect=0;align=center;shape=mxgraph.office.devices.hard_disk;" vertex="1" parent="1">
                    <mxGeometry x="-12.5" y="-684.25" width="25" height="30" as="geometry"/>
                </mxCell>
                <mxCell id="82" value="" style="sketch=0;outlineConnect=0;fontColor=#232F3E;gradientColor=none;strokeColor=#000000;fillColor=none;dashed=0;verticalLabelPosition=bottom;verticalAlign=top;align=center;html=1;fontSize=12;fontStyle=0;aspect=fixed;shape=mxgraph.aws4.resourceIcon;resIcon=mxgraph.aws4.certificate_manager;" vertex="1" parent="1">
                    <mxGeometry x="-153.75" y="-697" width="67.5" height="67.5" as="geometry"/>
                </mxCell>
            </root>
        </mxGraphModel>
    </diagram>
</mxfile>